<?xml version="1.0" standalone="no"?>
<!DOCTYPE svg PUBLIC "-//W3C//DTD SVG 20010904//EN"
 "http://www.w3.org/TR/2001/REC-SVG-20010904/DTD/svg10.dtd">
<svg version="1.0" xmlns="http://www.w3.org/2000/svg"
 width="1200.000000pt" height="630.000000pt" viewBox="0 0 1200.000000 630.000000"
 preserveAspectRatio="xMidYMid meet">

<g transform="translate(0.000000,630.000000) scale(0.100000,-0.100000)"
fill="#000000" stroke="none">
<path d="M0 3150 l0 -3150 6000 0 6000 0 0 3150 0 3150 -6000 0 -6000 0 0
-3150z m8315 1336 c17 -3 59 -11 95 -17 76 -12 217 -56 225 -70 4 -5 13 -9 21
-9 8 0 54 -26 102 -59 80 -53 172 -136 263 -236 59 -65 166 -244 200 -335 18
-47 37 -88 43 -92 11 -7 11 -7 -18 -24 -26 -14 -30 -48 -10 -90 22 -46 57 -69
124 -82 90 -18 118 -21 275 -27 166 -6 294 -14 340 -19 17 -3 71 -7 120 -11
156 -11 178 -14 330 -36 39 -6 80 -12 92 -14 11 -2 32 -6 45 -10 25 -7 25 -6
-37 41 -24 18 -6 8 135 -77 101 -61 119 -79 96 -99 -22 -17 -140 -38 -280 -50
-178 -14 -8714 -14 -8916 1 -195 13 -300 38 -300 70 0 10 115 87 170 113 l35
17 -23 -20 c-24 -21 -30 -51 -9 -51 7 0 30 18 51 39 35 36 41 38 68 29 18 -7
25 -13 18 -18 -15 -10 6 -26 61 -45 45 -17 196 -15 419 5 l85 7 -65 4 c-113 6
905 14 1135 9 268 -7 215 -12 -108 -11 -145 0 -236 -3 -232 -9 3 -5 177 -9
428 -10 325 0 437 3 488 14 89 19 141 45 146 73 1 12 3 26 4 30 4 22 -3 33
-21 33 -13 0 -22 9 -26 25 -5 20 -9 23 -24 15 -25 -13 -43 -13 -35 1 5 7 -8 9
-41 5 -46 -5 -47 -5 -16 6 17 6 32 16 32 22 0 9 -24 9 -95 1 -52 -6 -95 -8
-95 -5 0 4 29 10 65 13 36 4 73 11 83 16 15 9 14 11 -8 19 -14 5 -63 12 -109
15 -78 6 -83 5 -78 -12 2 -10 1 -25 -4 -32 -4 -8 -3 -16 3 -20 15 -10 -179
-21 -292 -17 l-95 3 -3 39 -3 38 -82 -6 c-52 -4 -76 -3 -67 3 16 10 132 19
280 22 l95 2 -70 11 c-59 10 -66 13 -42 19 38 10 34 29 -5 23 -72 -12 -153
-15 -130 -5 36 14 26 53 -13 57 -95 8 -137 15 -127 21 8 5 13 72 17 201 5 190
12 249 41 337 49 150 144 187 489 187 179 1 459 -10 518 -19 12 -2 49 -6 82
-9 33 -4 78 -11 100 -16 22 -5 41 -9 43 -9 76 -10 302 -106 347 -148 11 -11
35 -28 53 -38 17 -11 32 -23 32 -27 0 -4 7 -8 15 -8 8 0 15 -5 15 -10 0 -6 17
-10 39 -8 30 1 43 8 52 25 7 13 16 23 21 23 4 0 8 7 8 15 0 8 5 15 12 15 6 0
9 2 6 6 -8 7 50 125 75 152 24 26 77 56 118 65 161 39 926 23 1099 -23 19 -5
46 -11 60 -13 88 -16 260 -90 286 -123 6 -8 15 -14 19 -14 8 0 47 -41 128
-135 131 -152 223 -226 257 -205 7 4 19 6 27 3 7 -3 13 0 13 7 0 6 4 9 9 6 5
-4 67 50 138 118 200 193 277 252 403 312 100 48 235 82 380 97 53 5 371 0
405 -7z m-5815 -810 c0 -3 -4 -8 -10 -11 -5 -3 -10 -1 -10 4 0 6 5 11 10 11 6
0 10 -2 10 -4z m455 -16 c13 -6 -5 -8 -55 -8 -52 0 -67 2 -50 8 33 11 80 11
105 0z m-488 -21 c-1 -17 -6 -19 -27 -14 -14 4 -47 10 -75 13 l-50 7 60 6 c33
3 68 6 77 7 11 1 16 -5 15 -19z m98 -49 c17 -4 22 -8 13 -9 -31 -2 -19 -17 23
-30 43 -13 61 -37 38 -52 -18 -11 -42 -12 -35 0 4 5 -10 5 -32 0 -56 -13 -84
-10 -43 5 47 17 53 38 9 30 l-33 -5 25 15 25 14 -28 11 c-16 6 -32 11 -37 11
-5 0 -12 5 -15 10 -7 12 45 12 90 0z m317 -17 c-24 -3 -32 -9 -31 -21 4 -34
-12 -52 -46 -52 -30 0 -33 2 -30 28 2 15 -2 33 -7 40 -8 9 6 12 68 10 44 0 64
-3 46 -5z m69 -20 c-11 -5 -11 -7 0 -15 10 -7 8 -8 -8 -5 -22 5 -39 -16 -27
-34 7 -11 1 -11 -30 1 -37 14 -32 26 17 43 40 14 78 22 48 10z m-1277 -37 c-7
-17 -39 -22 -48 -7 -4 5 6 14 21 19 33 11 35 10 27 -12z m-67 -83 c-3 -10 -5
-2 -5 17 0 19 2 27 5 18 2 -10 2 -26 0 -35z m173 28 c21 -6 22 -8 8 -14 -13
-4 -18 -17 -18 -42 0 -28 -4 -35 -19 -35 -38 0 -51 11 -51 46 0 21 -6 37 -17
43 -14 8 -8 10 27 10 25 -1 56 -4 70 -8z m674 -3 c-18 -8 -20 -15 -14 -43 7
-31 6 -33 -23 -39 -16 -3 -64 -6 -107 -6 l-78 0 4 35 c2 30 0 35 -18 35 -44 0
-8 11 63 19 110 13 200 12 173 -1z m386 -33 c0 -39 -10 -48 -43 -40 -23 6 -24
9 -14 40 9 31 31 47 50 38 4 -2 7 -19 7 -38z m185 35 c17 -4 22 -8 13 -9 -14
-1 -18 -10 -18 -41 0 -36 -3 -40 -24 -40 -43 0 -53 8 -48 42 3 22 0 35 -14 45
-16 12 -14 13 22 12 21 -1 53 -5 69 -9z m670 -3 c-11 -7 -22 -25 -23 -42 -2
-16 -6 -32 -8 -35 -8 -7 -155 -19 -170 -13 -8 3 -14 19 -14 39 0 30 -3 34 -27
35 -75 2 100 26 202 27 51 1 57 0 40 -11z m-1558 -14 c-20 -2 -52 -2 -70 0
-17 2 0 4 38 4 39 0 53 -2 32 -4z m1251 0 c-21 -2 -55 -2 -75 0 -21 2 -4 4 37
4 41 0 58 -2 38 -4z m-2162 -231 c-18 -16 -18 -16 -6 6 6 13 14 21 18 18 3 -4
-2 -14 -12 -24z m9594 -4 c0 -6 -7 -5 -15 2 -8 7 -15 17 -15 22 0 6 7 5 15 -2
8 -7 15 -17 15 -22z m-9613 -320 c-1 -57 -3 -11 -3 102 0 113 2 159 3 103 2
-57 2 -149 0 -205z m9620 -6 c-1 -53 -3 -7 -3 103 0 110 2 154 3 97 2 -57 2
-147 0 -200z m-8955 248 c185 0 199 -1 196 -17 -3 -16 -17 -18 -143 -15 -187
3 -404 20 -424 33 -11 7 12 9 78 5 52 -3 184 -6 293 -6z m8663 1 c-6 -6 -126
-19 -268 -30 -141 -11 -262 -23 -268 -27 -6 -3 -18 1 -27 9 -21 18 -61 16 -77
-6 -10 -14 -48 -17 -296 -20 -156 -3 -285 -6 -286 -7 -8 -7 -29 -4 -35 4 -4 6
-12 5 -21 -2 -7 -7 -18 -8 -22 -4 -5 4 -5 1 -1 -5 4 -7 2 -13 -3 -13 -6 0 -11
5 -11 11 0 7 -14 9 -40 5 -31 -4 -39 -2 -34 7 6 9 4 9 -7 1 -8 -5 -21 -10 -29
-9 -8 0 -18 -4 -22 -10 -5 -7 -11 -7 -15 0 -13 16 -47 11 -51 -8 -2 -9 -8 -17
-14 -17 -5 0 -8 6 -5 13 3 8 1 20 -5 28 -8 11 -8 9 -4 -5 7 -20 7 -20 -15 0
-20 17 -22 17 -16 1 5 -14 4 -16 -10 -8 -13 7 -22 4 -36 -12 l-19 -22 7 24 c5
16 4 21 -4 17 -6 -4 -11 -2 -11 4 0 6 -8 4 -17 -6 -16 -15 -17 -15 -24 2 -7
18 -8 18 -8 1 -1 -11 -6 -15 -13 -11 -7 4 -8 3 -4 -5 4 -6 11 -9 15 -7 4 3 14
-10 23 -29 8 -19 11 -32 7 -29 -5 3 -9 1 -9 -3 0 -5 -9 -9 -20 -9 -17 0 -18 2
-5 16 21 23 20 47 -1 30 -8 -8 -14 -9 -12 -3 2 6 -1 11 -7 11 -5 0 -13 11 -17
23 -5 12 -11 19 -14 16 -4 -3 4 -23 17 -43 12 -21 17 -34 9 -29 -10 6 -12 4
-7 -9 4 -10 3 -15 -3 -11 -6 3 -10 1 -10 -4 0 -6 4 -11 8 -11 8 0 10 -7 14
-50 2 -22 13 -26 23 -10 9 14 28 12 22 -2 -2 -7 -10 -12 -16 -11 -6 2 -11 -2
-11 -8 0 -8 -5 -8 -15 1 -8 7 -12 17 -8 24 3 6 0 5 -8 -2 -12 -11 -10 -16 10
-33 13 -10 18 -19 13 -19 -6 0 -14 5 -17 10 -3 6 -11 10 -16 10 -6 0 -7 -5 -3
-12 4 -7 3 -8 -4 -4 -7 4 -12 13 -12 20 0 14 -27 15 -48 2 -6 -4 -12 -17 -11
-29 l0 -22 9 23 c11 27 16 28 16 2 0 -24 -25 -35 -32 -15 -4 8 -10 15 -16 15
-5 0 -6 -5 -2 -11 4 -8 0 -8 -15 0 -14 8 -21 8 -21 1 0 -6 11 -15 25 -20 14
-5 25 -13 25 -16 0 -4 -3 -4 -7 -1 -3 4 -13 1 -21 -6 -11 -8 -14 -8 -9 0 4 6
3 15 -3 18 -7 4 -10 -3 -8 -20 3 -32 -23 -43 -43 -19 -10 12 -8 19 9 35 12 11
22 27 22 37 0 15 -2 15 -10 2 -5 -8 -10 -10 -10 -4 0 6 7 17 15 24 8 7 15 21
15 31 0 11 -7 19 -15 19 -8 0 -15 -5 -15 -11 0 -5 5 -7 10 -4 6 3 10 -1 10 -9
0 -21 -12 -20 -32 3 -13 16 -14 22 -4 30 7 6 16 8 19 4 6 -6 11 11 8 30 0 4 5
7 13 7 8 0 18 6 22 13 4 6 4 9 -1 5 -4 -4 -14 0 -22 10 -12 16 -13 16 -7 0 4
-12 1 -18 -10 -18 -9 0 -16 5 -16 11 0 8 -5 8 -15 -1 -17 -14 -20 -40 -4 -40
5 0 7 5 4 10 -3 6 1 10 9 10 22 0 20 -9 -7 -34 -22 -20 -24 -21 -42 -4 -19 18
-35 16 -35 -5 0 -8 3 -7 9 2 7 11 11 9 20 -8 7 -11 20 -21 30 -21 10 0 25 -7
32 -16 12 -15 11 -16 -11 -9 -22 7 -23 6 -12 -8 12 -14 6 -45 -10 -50 -12 -5
-39 35 -41 61 -1 16 -8 29 -14 29 -16 0 -17 -13 -2 -23 6 -3 9 -17 6 -30 -2
-13 -1 -21 3 -19 8 5 24 -24 21 -38 0 -4 10 0 24 9 29 19 33 11 7 -16 -19 -21
-72 -35 -72 -19 0 6 -9 7 -20 4 -12 -4 -20 -2 -20 5 0 6 5 8 10 5 6 -3 10 -1
10 5 0 7 7 10 15 6 8 -3 15 -1 15 5 0 6 5 7 10 4 6 -3 10 -2 10 4 0 5 -12 9
-27 8 -23 -2 -27 2 -25 18 2 16 1 17 -7 5 -6 -8 -11 -11 -11 -7 0 5 -7 1 -16
-8 -9 -9 -13 -19 -10 -23 4 -3 11 0 16 8 7 11 12 12 21 3 8 -8 6 -13 -9 -18
-13 -3 -19 -12 -16 -20 4 -10 0 -13 -18 -10 -12 3 -24 9 -26 15 -2 5 -8 10
-13 10 -6 0 -7 -4 -4 -10 10 -16 -6 -12 -29 8 -20 16 -20 16 -7 0 7 -10 12
-18 10 -19 -40 -8 -49 -7 -46 2 1 6 -5 14 -13 16 -12 4 -12 3 -1 -5 7 -5 9
-12 5 -15 -13 -7 -1270 -8 -1300 -1 -23 6 -23 7 -7 20 16 12 16 12 -6 7 -19
-5 -22 -3 -16 8 6 11 5 11 -5 2 -7 -6 -18 -9 -25 -6 -8 2 -24 -1 -37 -7 -19
-10 -21 -10 -10 1 14 16 16 49 2 49 -5 0 -10 19 -10 43 l0 42 -15 -29 c-17
-32 -19 -39 -7 -32 4 2 8 -4 8 -15 0 -16 -3 -17 -13 -6 -8 7 -15 24 -18 36 -2
13 -12 29 -22 37 -15 11 -20 11 -29 -1 -6 -8 -15 -15 -20 -15 -4 0 -3 5 4 12
16 16 15 33 -1 19 -10 -8 -14 -7 -14 3 0 9 8 13 22 10 16 -3 21 2 22 19 1 13
-1 17 -5 10 -5 -8 -13 -9 -22 -3 -9 6 -18 3 -26 -8 -11 -15 -12 -14 -7 8 5 21
4 23 -8 14 -15 -12 -51 -15 -44 -4 2 3 -5 19 -16 36 -17 26 -19 27 -19 7 0
-12 -4 -24 -9 -27 -4 -3 -7 8 -5 24 2 17 -1 30 -7 30 -6 0 -7 -4 -4 -10 3 -5
1 -10 -4 -10 -6 0 -11 7 -11 16 0 20 -19 8 -31 -20 -9 -21 -10 -21 -5 2 4 20
0 24 -20 21 -4 0 -11 5 -15 13 -7 10 -9 9 -9 -4 0 -18 -19 -21 -31 -5 -9 12
-89 16 -449 21 -179 3 -431 8 -560 11 -129 2 -939 8 -1800 11 -861 3 -1568 8
-1573 11 -4 2 -7 13 -7 24 0 19 42 19 4057 19 2231 0 4057 1 4059 2 9 8 297 7
289 -1z m-9061 -37 c60 -9 125 -22 145 -29 31 -10 36 -17 36 -43 0 -16 4 -28
9 -25 4 3 5 -5 1 -17 -5 -16 -4 -20 5 -15 9 5 10 2 6 -13 -4 -12 -2 -38 3 -59
7 -24 7 -41 1 -47 -12 -12 -13 -39 -2 -32 5 3 8 -5 7 -17 -4 -53 60 -76 243
-84 72 -3 132 -9 132 -12 0 -12 -396 7 -488 23 -122 21 -152 36 -153 79 -1 74
-9 194 -14 224 -4 24 -16 39 -48 58 -37 22 -39 25 -17 25 14 0 74 -7 134 -16z
m9199 -9 c-38 -23 -42 -29 -47 -78 -7 -63 -14 -160 -15 -204 -1 -25 -7 -36
-30 -48 -44 -22 -186 -43 -371 -55 -202 -12 -240 -12 -240 -1 0 4 55 11 123
13 159 7 239 28 254 69 6 16 8 27 3 24 -9 -6 -3 76 16 208 8 49 33 61 169 77
55 7 102 14 104 16 2 2 20 4 40 4 l36 0 -42 -25z m-1411 -57 c-7 -7 -12 -8
-12 -2 0 14 12 26 19 19 2 -3 -1 -11 -7 -17z m-378 -24 c3 -8 2 -12 -4 -9 -6
3 -10 10 -10 16 0 14 7 11 14 -7z m27 -23 c-26 -26 -27 -18 -3 14 9 13 18 19
20 15 2 -5 -6 -18 -17 -29z m53 3 c3 -8 2 -12 -4 -9 -6 3 -10 10 -10 16 0 14
7 11 14 -7z m-3702 -23 c11 -12 10 -12 -2 -5 -8 5 -249 11 -535 14 l-520 6
522 -1 c434 0 524 -2 535 -14z m3673 9 c-3 -5 -12 -10 -18 -10 -7 0 -6 4 3 10
19 12 23 12 15 0z m-2295 -6 c0 -8 -19 -13 -24 -6 -3 5 1 9 9 9 8 0 15 -2 15
-3z m35 -15 c-3 -8 -15 -15 -26 -16 -19 -2 -18 -1 3 17 25 20 31 20 23 -1z
m2165 -39 c0 -5 -4 -10 -10 -10 -5 0 -10 5 -10 10 0 6 5 10 10 10 6 0 10 -4
10 -10z m-2127 -25 c-3 -9 -8 -14 -10 -11 -3 3 -2 9 2 15 9 16 15 13 8 -4z
m129 -30 c4 -5 8 -14 8 -20 0 -5 -5 -3 -10 5 -5 8 -10 10 -10 4 0 -6 -6 -11
-13 -11 -7 0 -13 8 -13 17 0 18 26 22 38 5z m-107 -15 c3 -6 -1 -7 -9 -4 -18
7 -21 14 -7 14 6 0 13 -4 16 -10z m2130 -21 c-4 -5 -12 -9 -18 -8 -9 0 -8 2 1
6 6 2 9 10 6 15 -4 7 -2 8 5 4 6 -4 9 -12 6 -17z m-2030 -9 c3 -6 -1 -7 -9 -4
-18 7 -21 14 -7 14 6 0 13 -4 16 -10z m1780 0 c3 -5 1 -10 -4 -10 -6 0 -11 5
-11 10 0 6 2 10 4 10 3 0 8 -4 11 -10z m155 0 c0 -5 -4 -10 -10 -10 -5 0 -10
5 -10 10 0 6 5 10 10 10 6 0 10 -4 10 -10z m20 -15 c0 -8 -4 -15 -10 -15 -5 0
-7 7 -4 15 4 8 8 15 10 15 2 0 4 -7 4 -15z m-40 -25 c8 -15 8 -20 -3 -20 -7 0
-13 9 -13 20 0 11 1 20 3 20 1 0 7 -9 13 -20z m-1860 6 c0 -2 -7 -9 -15 -16
-13 -11 -14 -10 -9 4 5 14 24 23 24 12z m1814 -21 c-7 -17 -20 -20 -28 -6 -4
5 0 12 6 14 23 9 28 7 22 -8z m130 -1 c3 -8 2 -12 -4 -9 -6 3 -10 10 -10 16 0
14 7 11 14 -7z m-234 -4 c0 -5 -4 -10 -10 -10 -5 0 -10 5 -10 10 0 6 5 10 10
10 6 0 10 -4 10 -10z m310 6 c0 -2 -7 -7 -16 -10 -8 -3 -12 -2 -9 4 6 10 25
14 25 6z m-282 -46 c841 0 1272 -3 1272 -10 0 -6 -137 -10 -387 -11 -230 -1
-370 -5 -343 -10 25 -4 101 -8 170 -10 98 -1 115 -3 80 -10 -25 -4 -77 -8
-117 -8 -59 -1 -76 -5 -98 -23 -53 -44 -78 -74 -156 -188 -204 -298 -382 -435
-664 -510 -158 -42 -453 -38 -637 9 -128 33 -351 138 -438 206 -44 35 -205
199 -236 240 -49 67 -136 154 -168 170 -81 41 -198 36 -228 -9 -22 -33 3 -112
107 -335 39 -85 69 -164 72 -192 5 -45 4 -48 -24 -63 -50 -25 -158 -39 -283
-34 -161 6 -157 3 -282 217 -34 58 -65 110 -69 115 -42 53 -109 149 -109 155
0 17 -119 128 -156 146 -45 21 -156 31 -238 21 -59 -8 -136 -54 -142 -86 -2
-8 -8 -34 -14 -57 -5 -23 -14 -125 -19 -226 -13 -275 -20 -282 -251 -282 -233
0 -231 -2 -264 305 -3 25 -10 72 -17 105 -6 33 -12 65 -13 70 -9 47 -33 89
-66 115 -52 41 -95 58 -182 71 -95 14 -714 14 -838 -1 -105 -12 -186 -44 -219
-86 -41 -52 -80 -254 -81 -411 0 -151 -24 -168 -240 -168 -156 0 -196 10 -221
56 -6 11 -19 91 -30 177 -50 417 -58 455 -95 469 -13 5 -13 7 -2 14 8 5 -28 9
-87 10 -55 1 -129 5 -165 9 -50 5 -22 8 120 10 412 6 292 17 -202 18 -338 1
-529 6 -533 12 -6 10 3219 18 4625 13 327 -2 1168 -3 1868 -3z"/>
<path d="M3843 3799 c-5 -5 -20 -11 -32 -12 -11 -1 -21 -4 -21 -8 0 -4 -13
-21 -30 -39 -16 -18 -30 -43 -30 -56 0 -20 -5 -24 -29 -24 -56 0 -91 -12 -91
-31 0 -20 23 -25 190 -34 139 -8 229 -24 246 -44 39 -48 83 -91 94 -91 6 0 9
4 5 9 -5 10 3 13 60 26 38 8 63 31 81 74 18 44 18 77 -2 85 -9 3 -44 6 -78 6
-57 0 -64 2 -84 30 -12 16 -22 34 -22 39 0 6 -15 18 -32 27 -18 9 -35 20 -38
25 -8 12 -114 26 -136 18 -10 -3 -24 -3 -30 2 -6 5 -15 4 -21 -2z"/>
<path d="M8007 3804 c-2 -3 -15 -7 -28 -8 -55 -8 -89 -19 -89 -29 0 -6 -3 -7
-7 -4 -3 4 -14 0 -23 -8 -10 -9 -22 -15 -28 -13 -6 2 -30 -15 -53 -37 -40 -38
-46 -40 -121 -46 -43 -3 -83 -10 -89 -16 -6 -6 -13 -29 -16 -52 -9 -67 34
-101 157 -126 83 -17 605 -24 671 -10 15 4 47 8 72 10 24 1 60 13 80 26 32 21
35 27 33 64 -6 84 -31 105 -127 105 -23 0 -39 5 -39 12 0 6 -2 9 -5 6 -3 -3
-20 8 -37 24 -17 16 -33 26 -36 24 -2 -3 -19 6 -37 19 -17 14 -40 25 -49 25
-9 0 -15 4 -12 9 4 5 -2 8 -11 7 -10 -2 -33 1 -53 6 -56 14 -100 17 -106 7 -3
-5 -13 -5 -23 1 -10 5 -21 7 -24 4z"/>
<path d="M5810 3792 c0 -7 -4 -11 -9 -8 -5 4 -12 0 -14 -6 -4 -10 -6 -9 -6 1
-1 9 -8 6 -22 -10 -11 -13 -26 -24 -32 -24 -11 0 -31 -32 -41 -67 -4 -14 -16
-18 -54 -18 -67 0 -87 -16 -79 -65 9 -55 51 -95 101 -96 23 -1 32 -3 21 -6
-65 -14 -94 -43 -44 -43 26 0 24 -16 -3 -24 -47 -13 10 -27 154 -37 132 -10
298 -7 475 7 70 6 72 7 88 41 9 19 15 36 13 38 -11 10 -155 24 -214 20 l-69
-4 62 10 c89 14 109 23 143 70 54 75 40 89 -87 89 -77 0 -106 7 -97 22 3 5 -2
18 -12 29 -9 10 -13 19 -9 19 5 0 0 6 -10 14 -11 8 -23 12 -27 10 -5 -3 -8 0
-8 5 0 6 -9 11 -19 11 -11 0 -23 5 -26 10 -4 6 -11 8 -16 5 -5 -4 -9 -2 -9 3
0 4 -29 8 -65 8 -40 1 -65 -4 -65 -10 0 -6 -5 -4 -10 4 -7 11 -10 11 -10 2z
m203 -309 c-23 -2 -64 -2 -90 0 -26 2 -7 3 42 3 50 0 71 -1 48 -3z"/>
<path d="M4934 3635 c8 -8 19 -15 25 -15 6 0 11 7 11 15 0 9 -10 15 -26 15
-23 0 -24 -2 -10 -15z"/>
<path d="M6872 3643 c9 -2 18 -11 20 -19 2 -11 6 -10 16 6 11 19 10 20 -20 19
-18 -1 -25 -3 -16 -6z"/>
<path d="M5523 3443 c9 -2 25 -2 35 0 9 3 1 5 -18 5 -19 0 -27 -2 -17 -5z"/>
<path d="M2438 3313 c7 -3 16 -2 19 1 4 3 -2 6 -13 5 -11 0 -14 -3 -6 -6z"/>
<path d="M1770 3220 c0 -5 21 -10 47 -10 55 0 54 5 -4 14 -27 4 -43 2 -43 -4z"/>
<path d="M7024 3015 c-43 -26 -65 -62 -66 -112 -1 -39 23 -75 42 -63 10 6 22
2 38 -13 24 -22 24 -22 525 -25 l502 -2 35 22 c19 12 42 21 52 19 9 -1 19 2
22 7 11 18 24 92 15 86 -5 -3 -9 1 -9 8 0 8 -7 24 -16 36 -12 18 -19 20 -35
12 -27 -15 -48 -1 -25 16 42 30 -16 34 -531 34 l-508 0 -41 -25z m535 -35
c-421 -4 -500 -7 -516 -20 -10 -8 -8 -5 5 8 l23 22 492 -2 492 -3 -496 -5z
m-542 -92 c-3 -7 -5 -2 -5 12 0 14 2 19 5 13 2 -7 2 -19 0 -25z"/>
<path d="M8610 3036 c0 -2 7 -9 15 -16 13 -11 14 -10 9 4 -5 14 -24 23 -24 12z"/>
<path d="M8740 3031 c0 -5 7 -12 16 -15 14 -5 15 -4 4 9 -14 17 -20 19 -20 6z"/>
<path d="M6713 3016 c6 -16 5 -17 -8 -6 -14 12 -15 11 -4 -13 12 -27 33 -35
44 -17 3 6 1 10 -6 10 -10 0 -10 3 -2 11 15 15 34 3 26 -16 -8 -23 5 -18 18 6
7 13 7 19 1 15 -6 -4 -15 1 -20 10 -7 12 -11 13 -17 5 -5 -9 -11 -9 -23 1 -14
11 -15 10 -9 -6z"/>
<path d="M8702 3017 c-10 -12 -10 -15 4 -13 9 0 19 -4 21 -10 2 -7 -6 -10 -21
-9 -22 3 -24 0 -21 -31 3 -32 -9 -47 -17 -22 -2 6 -10 8 -16 4 -9 -6 -9 -12 2
-28 11 -15 12 -26 5 -40 -10 -19 -5 -38 12 -38 5 0 9 10 10 23 0 12 3 16 6 10
3 -10 8 -9 20 3 10 9 26 13 45 10 23 -3 31 0 37 17 5 13 4 30 -1 40 -5 11 -7
31 -4 45 5 21 4 23 -4 12 -9 -13 -11 -13 -21 0 -9 13 -10 13 -6 -2 3 -9 3 -19
-1 -21 -4 -2 -2 -3 5 -1 17 4 23 -34 6 -40 -8 -3 -11 -2 -8 3 3 5 1 12 -5 16
-5 3 -10 0 -10 -7 0 -11 -2 -10 -9 0 -7 11 -9 11 -14 0 -3 -9 6 -19 25 -27 16
-7 27 -16 24 -19 -3 -2 -12 1 -20 7 -8 7 -20 10 -26 6 -5 -3 -11 -1 -11 4 -3
21 -4 26 -13 39 -10 16 -1 27 21 27 22 0 26 17 10 39 -11 16 -15 16 -25 3z
m-18 -113 c20 -19 20 -31 1 -31 -8 0 -13 2 -10 5 2 3 0 13 -6 23 -12 23 -6 24
15 3z"/>
<path d="M8665 3010 c-3 -5 -1 -10 4 -10 6 0 11 5 11 10 0 6 -2 10 -4 10 -3 0
-8 -4 -11 -10z"/>
<path d="M8520 3005 c0 -5 5 -17 10 -25 5 -8 10 -10 10 -5 0 6 -5 17 -10 25
-5 8 -10 11 -10 5z"/>
<path d="M8561 3003 c-1 -17 16 -25 25 -12 4 7 3 9 -4 5 -5 -3 -13 0 -15 6 -4
9 -6 10 -6 1z"/>
<path d="M6894 2985 c-4 -8 -11 -12 -17 -8 -6 3 -7 1 -3 -6 4 -6 12 -9 17 -6
5 4 8 -4 6 -16 -2 -13 -9 -25 -15 -27 -8 -2 -10 3 -6 15 4 14 4 15 -4 4 -13
-18 -33 -5 -25 17 3 9 3 14 -2 10 -4 -4 -14 0 -22 8 -17 16 -34 15 -41 -4 -2
-8 5 -11 20 -10 19 3 23 -2 23 -24 1 -15 4 -31 9 -35 4 -4 6 -3 4 2 -1 6 1 10
7 10 5 0 10 -8 10 -17 3 -30 14 -32 24 -5 5 14 15 28 20 32 6 3 10 22 8 41 -2
38 -5 41 -13 19z"/>
<path d="M6931 2975 c0 -5 3 -16 8 -23 7 -11 9 -10 14 3 4 9 3 14 -2 10 -5 -3
-12 1 -14 7 -3 7 -6 9 -6 3z"/>
<path d="M8400 2945 c0 -5 5 -17 10 -25 5 -8 10 -10 10 -5 0 6 -5 17 -10 25
-5 8 -10 11 -10 5z"/>
<path d="M8561 2934 c0 -11 3 -14 6 -6 3 7 2 16 -1 19 -3 4 -6 -2 -5 -13z"/>
<path d="M6927 2903 c-11 -11 -8 -20 7 -20 8 0 12 6 9 14 -6 15 -7 15 -16 6z"/>
<path d="M8429 2888 c9 -12 10 -18 2 -18 -6 0 -11 -7 -11 -16 0 -9 -5 -13 -12
-9 -7 4 -5 0 4 -8 14 -11 15 -16 5 -27 -9 -10 -9 -12 3 -8 8 3 14 14 13 24 -4
37 4 46 29 32 13 -7 27 -11 32 -10 5 2 13 -3 17 -10 6 -9 9 -9 9 -1 0 14 -12
23 -41 28 -12 3 -31 12 -43 22 -19 17 -20 17 -7 1z"/>
<path d="M8460 2886 c7 -7 14 -6 21 1 9 9 7 12 -9 10 -14 -1 -18 -5 -12 -11z"/>
<path d="M6923 2856 c-9 -11 -9 -20 0 -40 14 -29 42 -34 51 -10 5 14 4 15 -9
4 -9 -8 -15 -8 -15 -2 0 6 4 14 10 17 6 4 5 13 -3 25 -14 23 -18 24 -34 6z
m27 -16 c0 -5 -8 -10 -17 -10 -15 0 -16 2 -3 10 19 12 20 12 20 0z"/>
<path d="M8554 2850 c0 -13 7 -25 14 -28 16 -5 15 10 -2 33 -13 18 -13 18 -12
-5z"/>
<path d="M8186 2843 c-6 -14 -5 -15 5 -6 7 7 10 15 7 18 -3 3 -9 -2 -12 -12z"/>
<path d="M8365 2808 c1 -12 7 -23 14 -24 6 -1 7 0 2 2 -6 3 -8 11 -5 19 3 7 1
15 -4 19 -5 3 -8 -5 -7 -16z"/>
<path d="M8328 2807 c7 -8 8 -18 4 -22 -4 -5 -1 -5 6 -1 17 10 15 23 -4 30
-13 5 -14 4 -6 -7z"/>
<path d="M8169 2783 c-13 -16 -12 -17 3 -5 9 8 23 10 29 6 8 -4 9 -3 5 4 -10
17 -21 15 -37 -5z"/>
<path d="M8226 2776 c7 -18 20 -21 29 -6 4 6 12 7 18 4 7 -4 6 -1 -2 7 -11 11
-14 11 -18 1 -4 -10 -8 -10 -19 -1 -12 10 -13 9 -8 -5z"/>
<path d="M8410 2786 c0 -2 8 -10 18 -17 15 -13 16 -12 3 4 -13 16 -21 21 -21
13z"/>
<path d="M8627 2773 c-4 -3 -7 -11 -7 -17 0 -6 5 -5 12 2 6 6 9 14 7 17 -3 3
-9 2 -12 -2z"/>
<path d="M3645 2680 c129 -10 1257 -10 1355 0 41 4 -269 7 -690 7 -421 0 -720
-4 -665 -7z"/>
<path d="M5628 2677 c105 -6 209 -6 295 0 123 9 112 10 -163 10 l-295 0 163
-10z"/>
<path d="M6650 2678 c82 -4 195 -4 260 0 101 8 84 9 -145 9 -252 0 -255 0
-115 -9z"/>
<path d="M7675 2679 c178 -8 605 -8 800 1 94 4 -54 6 -395 6 -336 1 -491 -2
-405 -7z"/>
<path d="M7885 2613 c-75 -8 -150 -26 -170 -39 -25 -16 -48 -61 -36 -68 5 -3
11 -19 14 -35 14 -66 109 -137 215 -160 77 -16 234 -14 306 5 66 17 176 71
216 107 31 27 67 87 65 107 -1 8 -3 20 -3 27 -5 34 -203 63 -412 61 -91 0
-178 -3 -195 -5z"/>
</g>
</svg>
