<svg width="80" height="80" viewBox="0 0 80 80" fill="none" xmlns="http://www.w3.org/2000/svg">
<path fill-rule="evenodd" clip-rule="evenodd" d="M17.2166 27.9902C19.0576 26.0756 21.5544 25 24.1579 25C27.6378 25 30.6946 26.883 32.438 29.7227L28.6164 33.6971C28.0045 31.7444 26.2397 30.3333 24.1579 30.3333C22.9145 30.3333 21.722 30.847 20.8428 31.7614L14.8347 38.0098C13.9555 38.9242 13.4616 40.1644 13.4616 41.4575C13.4616 44.1504 15.5606 46.3333 18.1499 46.3333C19.3933 46.3333 20.5858 45.8196 21.465 44.9052L37.7295 27.9902C39.5705 26.0756 42.0673 25 44.6708 25C48.1506 25 51.2075 26.883 52.9508 29.7226L49.1293 33.697C48.5174 31.7444 46.7526 30.3333 44.6708 30.3333C43.4274 30.3333 42.2349 30.847 41.3557 31.7614L29.247 44.3544L25.0912 48.6764C23.2502 50.591 20.7534 51.6667 18.1499 51.6667C12.7283 51.6667 8.33334 47.0959 8.33334 41.4575C8.33334 38.7499 9.36757 36.1532 11.2085 34.2386L17.2166 27.9902ZM38.6637 46.3333C39.9072 46.3333 41.0996 45.8196 41.9789 44.9052L58.2434 27.9902C60.0843 26.0756 62.5812 25 65.1847 25C70.6063 25 75.0012 29.5708 75.0012 35.2092C75.0012 37.9168 73.967 40.5135 72.126 42.4281L66.118 48.6764C64.277 50.591 61.7802 51.6667 59.1766 51.6667C55.697 51.6667 52.6402 49.7838 50.8969 46.9443L54.7182 42.97C55.3302 44.9224 57.095 46.3333 59.1766 46.3333C60.4201 46.3333 61.6125 45.8196 62.4918 44.9052L68.4998 38.6569C69.3791 37.7425 69.873 36.5023 69.873 35.2092C69.873 32.5163 67.774 30.3333 65.1847 30.3333C63.9413 30.3333 62.7488 30.847 61.8696 31.7614L45.605 48.6764C43.7641 50.591 41.2672 51.6667 38.6637 51.6667C35.1842 51.6667 32.1275 49.7839 30.3841 46.9446L34.2055 42.9704C34.8176 44.9227 36.5823 46.3333 38.6637 46.3333Z" fill="#394149"/>
</svg>
