<svg width="142" height="40" viewBox="0 0 142 40" fill="none" xmlns="http://www.w3.org/2000/svg">
<g filter="url(#filter0_i_1_14743)">
<path d="M25.3733 25.8468L21.685 33.5968C21.6152 33.7433 21.5108 33.8706 21.3808 33.9678C21.2508 34.065 21.0991 34.129 20.9388 34.1545C20.7785 34.1799 20.6144 34.1659 20.4607 34.1138C20.307 34.0616 20.1683 33.9728 20.0566 33.8551L14.1533 27.6234C13.9956 27.4571 13.7855 27.35 13.5583 27.3201L5.04662 26.2068C4.88581 26.1856 4.73256 26.1256 4.6001 26.032C4.46764 25.9384 4.35994 25.8139 4.28628 25.6694C4.21263 25.5249 4.17524 25.3646 4.17733 25.2024C4.17942 25.0402 4.22093 24.881 4.29829 24.7384L8.40162 17.1984C8.51071 16.9968 8.54719 16.7638 8.50496 16.5384L6.93329 8.10009C6.90344 7.94037 6.91297 7.77578 6.96104 7.62057C7.00911 7.46536 7.09427 7.3242 7.20917 7.2093C7.32406 7.09441 7.46522 7.00924 7.62044 6.96117C7.77565 6.9131 7.94024 6.90358 8.09996 6.93342L16.5383 8.50509C16.7636 8.54732 16.9966 8.51084 17.1983 8.40176L24.7383 4.29842C24.881 4.22105 25.0404 4.17957 25.2027 4.17757C25.365 4.17557 25.5253 4.2131 25.6699 4.28694C25.8144 4.36077 25.9388 4.46868 26.0323 4.60135C26.1259 4.73402 26.1857 4.88746 26.2066 5.04842L27.32 13.5584C27.3499 13.7857 27.457 13.9957 27.6233 14.1534L33.855 20.0568C33.9727 20.1685 34.0615 20.3071 34.1136 20.4608C34.1658 20.6145 34.1798 20.7786 34.1543 20.9389C34.1289 21.0992 34.0649 21.2509 33.9677 21.3809C33.8705 21.5109 33.7432 21.6153 33.5966 21.6851L25.8466 25.3734C25.6392 25.4721 25.472 25.6393 25.3733 25.8468ZM26.7016 29.0584L29.0583 26.7018L36.13 33.7718L33.7716 36.1301L26.7016 29.0584Z" fill="#FF1B6D"/>
</g>
<path d="M53.2429 29V15.3636H57.8949V17.956H58.0369C58.321 17.1037 58.8063 16.429 59.4929 15.9318C60.1795 15.4347 60.9962 15.1861 61.9432 15.1861C62.902 15.1861 63.7276 15.4406 64.4201 15.9496C65.1126 16.4527 65.5298 17.1214 65.6719 17.956H65.8139C66.0447 17.1214 66.536 16.4527 67.2876 15.9496C68.0393 15.4406 68.9212 15.1861 69.9332 15.1861C71.2412 15.1861 72.3007 15.6063 73.1115 16.4467C73.9283 17.2872 74.3366 18.4058 74.3366 19.8026V29H69.4361V21.0455C69.4361 20.4477 69.2852 19.9801 68.9833 19.6428C68.6815 19.2995 68.276 19.1278 67.767 19.1278C67.264 19.1278 66.8645 19.2995 66.5685 19.6428C66.2785 19.9801 66.1335 20.4477 66.1335 21.0455V29H61.446V21.0455C61.446 20.4477 61.2951 19.9801 60.9933 19.6428C60.6914 19.2995 60.286 19.1278 59.777 19.1278C59.4396 19.1278 59.1496 19.2048 58.907 19.3587C58.6643 19.5125 58.4749 19.7345 58.3388 20.0245C58.2086 20.3086 58.1435 20.6489 58.1435 21.0455V29H53.2429ZM76.6826 29V10.8182H81.6187V18.169H81.8673L87.336 10.8182H93.0889L86.9454 18.9148L93.2309 29H87.336L83.2522 22.1818L81.6187 24.3125V29H76.6826ZM111.02 19.9091C111.02 21.9332 110.626 23.6407 109.839 25.0316C109.052 26.4165 107.99 27.4671 106.652 28.1832C105.314 28.8935 103.823 29.2486 102.178 29.2486C100.52 29.2486 99.023 28.8905 97.6854 28.1744C96.3537 27.4523 95.2943 26.3988 94.5071 25.0138C93.7259 23.623 93.3352 21.9214 93.3352 19.9091C93.3352 17.8849 93.7259 16.1804 94.5071 14.7955C95.2943 13.4046 96.3537 12.354 97.6854 11.6438C99.023 10.9277 100.52 10.5696 102.178 10.5696C103.823 10.5696 105.314 10.9277 106.652 11.6438C107.99 12.354 109.052 13.4046 109.839 14.7955C110.626 16.1804 111.02 17.8849 111.02 19.9091ZM105.942 19.9091C105.942 18.8201 105.797 17.9027 105.507 17.157C105.223 16.4053 104.799 15.8371 104.237 15.4524C103.681 15.0618 102.994 14.8665 102.178 14.8665C101.361 14.8665 100.671 15.0618 100.109 15.4524C99.5527 15.8371 99.1295 16.4053 98.8395 17.157C98.5554 17.9027 98.4134 18.8201 98.4134 19.9091C98.4134 20.9981 98.5554 21.9184 98.8395 22.6701C99.1295 23.4158 99.5527 23.984 100.109 24.3746C100.671 24.7594 101.361 24.9517 102.178 24.9517C102.994 24.9517 103.681 24.7594 104.237 24.3746C104.799 23.984 105.223 23.4158 105.507 22.6701C105.797 21.9184 105.942 20.9981 105.942 19.9091ZM113.304 29V10.8182H118.24V25.0227H125.591V29H113.304ZM140.121 19.8026H135.612C135.588 19.5244 135.49 19.2847 135.319 19.0835C135.147 18.8822 134.925 18.7283 134.653 18.6218C134.386 18.5094 134.09 18.4531 133.765 18.4531C133.345 18.4531 132.984 18.5301 132.682 18.6839C132.38 18.8378 132.232 19.0568 132.238 19.3409C132.232 19.5421 132.318 19.7286 132.495 19.9002C132.679 20.0719 133.031 20.205 133.552 20.2997L136.322 20.7969C137.719 21.0514 138.757 21.4805 139.438 22.0842C140.124 22.6819 140.471 23.4839 140.477 24.4901C140.471 25.4607 140.181 26.3041 139.607 27.0202C139.038 27.7305 138.26 28.2809 137.272 28.6715C136.289 29.0562 135.168 29.2486 133.907 29.2486C131.824 29.2486 130.193 28.8224 129.015 27.9702C127.843 27.1179 127.189 25.9934 127.053 24.5966H131.918C131.983 25.0286 132.196 25.363 132.558 25.5998C132.924 25.8306 133.386 25.946 133.942 25.946C134.392 25.946 134.762 25.8691 135.052 25.7152C135.348 25.5613 135.499 25.3423 135.505 25.0582C135.499 24.7978 135.369 24.5907 135.114 24.4368C134.866 24.2829 134.475 24.1586 133.942 24.0639L131.528 23.6378C130.137 23.3951 129.095 22.9335 128.403 22.2528C127.71 21.5722 127.367 20.6963 127.373 19.625C127.367 18.678 127.616 17.8761 128.119 17.2191C128.628 16.5562 129.353 16.0531 130.294 15.7099C131.241 15.3607 132.362 15.1861 133.658 15.1861C135.629 15.1861 137.183 15.5945 138.319 16.4112C139.462 17.228 140.062 18.3584 140.121 19.8026Z" fill="white"/>
<defs>
<filter id="filter0_i_1_14743" x="4.17725" y="4.17749" width="31.9526" height="35.9526" filterUnits="userSpaceOnUse" color-interpolation-filters="sRGB">
<feFlood flood-opacity="0" result="BackgroundImageFix"/>
<feBlend mode="normal" in="SourceGraphic" in2="BackgroundImageFix" result="shape"/>
<feColorMatrix in="SourceAlpha" type="matrix" values="0 0 0 0 0 0 0 0 0 0 0 0 0 0 0 0 0 0 127 0" result="hardAlpha"/>
<feOffset dy="4"/>
<feGaussianBlur stdDeviation="2"/>
<feComposite in2="hardAlpha" operator="arithmetic" k2="-1" k3="1"/>
<feColorMatrix type="matrix" values="0 0 0 0 1 0 0 0 0 1 0 0 0 0 1 0 0 0 0.25 0"/>
<feBlend mode="normal" in2="shape" result="effect1_innerShadow_1_14743"/>
</filter>
</defs>
</svg>
