<svg width="25" height="99" viewBox="0 0 25 99" fill="none" xmlns="http://www.w3.org/2000/svg">
<path d="M12.6393 54.0987C12.2646 53.5595 11.9201 53.0758 11.596 52.6322C11.2901 52.2125 10.9344 51.7365 10.5576 51.2415C10.5393 51.2183 10.5224 51.193 10.5055 51.1691C9.24215 49.5064 7.98939 47.8247 7.14563 45.9581C7.1154 45.9012 7.08869 45.8421 7.06198 45.7852C6.54102 44.8192 5.6629 44.5098 4.84604 44.2244C4.63441 44.1505 4.42632 44.0767 4.22805 43.9973C3.00544 43.5065 1.83069 42.608 1.08683 41.4473C0.426656 40.4159 0.0990364 39.1828 0.356356 37.8421C0.404867 37.5918 0.472359 37.3535 0.558133 37.1285C0.873803 36.2968 1.4264 35.657 2.12032 35.2641C2.81775 34.8697 3.64595 34.7262 4.51066 34.8914C4.73564 34.935 4.96412 34.999 5.19403 35.0862C6.44899 35.5636 7.28218 36.4986 7.77281 37.6193C8.33245 38.896 8.43649 40.416 8.20588 41.7349C8.18549 41.846 8.15386 42.0168 8.12222 42.1884C7.94435 43.1206 7.75804 44.0985 8.28041 45.2207C8.3022 45.2643 8.324 45.31 8.34579 45.355C8.35423 45.3704 8.36266 45.3852 8.36899 45.4021C8.4161 45.5061 8.46461 45.6102 8.51523 45.7142C8.08356 40.3929 10.9999 34.431 13.5245 30.2175C15.4564 26.0933 14.2936 22.9676 12.3708 20.0526C11.996 19.5134 11.6515 19.0297 11.3274 18.5861C11.0216 18.1663 10.6658 17.6904 10.289 17.1954C10.2792 17.182 10.2686 17.1666 10.2602 17.1532C8.99048 15.4799 7.72713 13.7904 6.87708 11.912C6.84685 11.855 6.82013 11.796 6.79341 11.739C6.27246 10.773 5.39434 10.4637 4.57748 10.1782C4.36585 10.1044 4.15776 10.0306 3.95949 9.95115C2.73687 9.46041 1.56213 8.56191 0.818268 7.40117C0.158095 6.36978 -0.169525 5.13664 0.0877953 3.79596C0.136306 3.54567 0.203798 3.30734 0.289572 3.08236C0.605242 2.25065 1.15784 1.61087 1.85176 1.21793C2.54919 0.82352 3.3774 0.680092 4.2421 0.845315C4.46708 0.888905 4.69556 0.952883 4.92547 1.04006C6.18043 1.51742 7.01362 2.4525 7.50425 3.57312C8.06389 4.84987 8.16794 6.36986 7.93733 7.68876C7.91694 7.79985 7.8853 7.97069 7.85366 8.14223C7.67579 9.07448 7.48949 10.0524 8.01185 11.1746C8.03364 11.2182 8.05544 11.2638 8.07723 11.3088C8.08567 11.3243 8.09411 11.3391 8.10044 11.3559C8.89489 13.1129 10.1063 14.7355 11.3275 16.3434C11.3395 16.3568 11.3507 16.3701 11.3627 16.3856C11.4618 16.515 11.5644 16.6528 11.6734 16.7969C13.9261 19.7652 16.083 22.7251 15.8861 26.5166L15.9149 26.4731C16.1821 26.0702 16.412 25.7236 16.5448 25.5169C16.5786 25.4564 16.6137 25.3974 16.6489 25.3404C17.1832 24.3709 16.9596 23.4625 16.7515 22.6175C16.6946 22.3876 16.639 22.1605 16.6018 21.9777C16.3431 20.6876 16.4541 19.2126 17.0215 17.9528C17.5235 16.837 18.377 15.89 19.6404 15.3711C19.8837 15.272 20.1206 15.1968 20.3526 15.1461C21.2181 14.9563 22.0561 15.0702 22.7647 15.4351C23.4755 15.8014 24.0478 16.418 24.3825 17.2328C24.4731 17.4529 24.5434 17.6814 24.5955 17.9148C24.883 19.2232 24.5533 20.4309 23.8847 21.4539C23.1205 22.6196 21.9042 23.5385 20.6711 24.0693C20.6205 24.091 20.4328 24.1684 20.2444 24.2457C19.3726 24.6036 18.4586 24.9797 17.8054 26.016C17.7717 26.0751 17.7365 26.1334 17.6993 26.1925C17.6894 26.2079 17.681 26.2227 17.669 26.2382C17.4644 26.5588 17.2641 26.8597 17.0307 27.2126C16.4176 28.135 15.5859 29.3864 14.7057 30.8531C14.6874 30.8932 14.6684 30.934 14.6487 30.9726C14.6185 31.0345 14.5798 31.0921 14.5348 31.1407C11.2712 36.6407 7.48816 44.9591 11.6319 50.4311C11.731 50.5605 11.8337 50.6983 11.9426 50.8424C14.1663 53.7756 16.3002 56.7003 16.1611 60.4257L16.218 60.3364C16.3038 60.2035 16.3811 60.0826 16.5421 59.8323C16.5773 59.7719 16.611 59.7128 16.6462 59.6544C17.1805 58.6849 16.9569 57.7765 16.7488 56.9315C16.6919 56.7016 16.6363 56.4745 16.5991 56.2917C16.3403 55.0016 16.4514 53.5267 17.0188 52.2668C17.5208 51.151 18.3743 50.204 19.6377 49.6851C19.881 49.586 20.1179 49.5108 20.3499 49.4602C21.2153 49.2703 22.0534 49.3842 22.762 49.7491C23.4728 50.1154 24.0451 50.732 24.3797 51.5468C24.4704 51.7669 24.5407 51.9954 24.5928 52.2288C24.8803 53.5372 24.5506 54.7449 23.882 55.768C23.1178 56.9336 21.9014 57.8525 20.6684 58.3833C20.6178 58.4051 20.4301 58.4824 20.2416 58.5597C19.3698 58.9176 18.4559 59.2937 17.8027 60.33C17.769 60.3891 17.7338 60.4474 17.6965 60.5065C17.6867 60.522 17.6762 60.5381 17.6663 60.5522C17.6129 60.6344 17.4814 60.8376 17.3387 61.0598C16.7376 61.9885 15.8517 63.3609 14.9181 65.0158L14.9167 65.0172C14.9034 65.0439 14.89 65.0692 14.8731 65.0931C11.8978 70.3815 8.47459 78.5102 12.2107 84.425C12.449 84.8032 12.7464 85.147 13.0761 85.5C13.718 86.1432 14.3275 86.7915 14.8583 87.4853C14.8752 87.5057 14.8921 87.5275 14.9069 87.5493C15.07 87.7658 15.226 87.988 15.3723 88.2144C16.0106 89.2057 16.4627 90.2926 16.6033 91.5707C16.7425 92.8292 16.5766 94.2586 15.9832 95.9416C15.9431 96.054 15.901 96.1883 15.8574 96.3296C15.7266 96.7479 15.5818 97.2049 15.3751 97.5361C15.1536 97.8904 14.8323 98.2166 14.3669 98.379C13.9268 98.5337 13.3889 98.5288 12.7393 98.2377C12.7021 98.2223 12.6669 98.204 12.6332 98.1843C12.4433 98.0648 12.2837 97.9424 12.1494 97.818C11.6285 97.3343 11.4689 96.8154 11.4689 96.3669C11.4689 95.9183 11.6383 95.5542 11.7628 95.3559C11.8162 95.2722 11.8703 95.2033 11.9055 95.1647C13.0543 93.9266 13.8255 92.6195 14.1398 91.3802C14.4252 90.2567 14.3282 89.1894 13.7869 88.2958C13.6709 88.1447 13.5513 87.997 13.4276 87.8473C13.1098 87.4747 12.7942 87.147 12.4968 86.8363C12.3639 86.6985 12.2331 86.5628 12.1073 86.4278C11.8823 86.2028 11.6538 85.9779 11.4239 85.7494C9.8399 84.1886 8.18008 82.5525 7.14716 80.2684C7.11693 80.2093 7.09021 80.1524 7.0635 80.0954C6.54254 79.1294 5.66442 78.8201 4.84756 78.5347C4.63594 78.4608 4.42784 78.387 4.22957 78.3076C3.00696 77.8168 1.83222 76.9183 1.08835 75.7576C0.428178 74.7262 0.100558 73.4931 0.357878 72.1524C0.406388 71.9021 0.47388 71.6638 0.559654 71.4388C0.875324 70.6071 1.42792 69.9673 2.12184 69.5743C2.81927 69.1799 3.64748 69.0365 4.51218 69.2017C4.73716 69.2453 4.96564 69.3093 5.19555 69.3965C6.45051 69.8738 7.2837 70.8089 7.77433 71.9295C8.33397 73.2063 8.43801 74.7263 8.2074 76.0452C8.18702 76.1563 8.15538 76.3271 8.12374 76.4986C7.94587 77.4309 7.75957 78.4088 8.28193 79.531C8.30373 79.5746 8.32552 79.6203 8.34731 79.6653C8.35575 79.6807 8.36419 79.6955 8.37052 79.7124C8.72344 80.4935 9.16849 81.2007 9.66414 81.8574C8.12374 75.9327 11.0934 69.0942 13.7096 64.4427L13.7131 64.4357C15.7611 60.2245 14.5933 57.0508 12.6431 54.0966L12.6393 54.0987ZM18.0499 22.3032C18.1589 22.7468 18.2714 23.2038 18.3157 23.684C18.7811 23.4048 19.2613 23.2066 19.7337 23.0139C19.8258 22.9767 19.9165 22.938 20.1401 22.8424C21.1532 22.4058 22.1473 21.6613 22.7605 20.7255C23.2442 19.9865 23.4846 19.1246 23.2828 18.2043C23.2456 18.0362 23.1992 17.8837 23.1436 17.7473C22.9334 17.2369 22.5826 16.8551 22.1509 16.6315C21.7178 16.408 21.1919 16.3412 20.6358 16.4635C20.4713 16.5008 20.3082 16.5493 20.15 16.6147C19.236 16.9894 18.6145 17.6847 18.2447 18.5081C17.7962 19.5022 17.7125 20.6819 17.9206 21.7197C17.9642 21.9383 18.0099 22.1197 18.0549 22.3025L18.0499 22.3032ZM5.28813 42.9615C5.71979 43.1126 6.16484 43.2687 6.59019 43.4958C6.61058 42.953 6.7076 42.444 6.80321 41.9435C6.82641 41.8176 6.85032 41.6932 6.88195 41.5104C7.07178 40.4199 6.99093 39.1805 6.54239 38.1561C6.18804 37.3483 5.59818 36.6761 4.72007 36.3436C4.56399 36.2846 4.40931 36.241 4.25676 36.2108C3.714 36.1067 3.20147 36.1925 2.78035 36.4308C2.355 36.6727 2.01262 37.0741 1.81084 37.6035C1.75179 37.7561 1.70679 37.9213 1.67304 38.0971C1.48672 39.068 1.72999 39.9685 2.2158 40.7257C2.80565 41.646 3.74424 42.3638 4.72708 42.7568C4.90987 42.8306 5.0969 42.8961 5.28813 42.9615ZM5.01745 8.91791C5.44912 9.06907 5.89416 9.22514 6.31951 9.45224C6.3399 8.90949 6.43692 8.40046 6.53254 7.8999C6.55574 7.77405 6.57964 7.64962 6.61128 7.46683C6.80111 6.37639 6.72025 5.13696 6.27171 4.11251C5.91736 3.30469 5.32751 2.63257 4.44939 2.30009C4.29332 2.24103 4.13863 2.19744 3.98608 2.16721C3.44333 2.06316 2.93079 2.14893 2.50967 2.38728C2.08432 2.62913 1.74195 3.03057 1.54017 3.55996C1.48111 3.71253 1.43612 3.87774 1.40237 4.05351C1.21605 5.02442 1.45932 5.92496 1.94512 6.68215C2.53498 7.60245 3.47356 8.32027 4.45641 8.71324C4.6392 8.78706 4.82622 8.85253 5.01745 8.91791ZM15.3045 92.1865C14.8777 93.4921 14.0545 94.8258 12.8958 96.0737C12.8585 96.1342 12.8065 96.2418 12.8065 96.3711C12.8065 96.4991 12.8656 96.6587 13.0617 96.8401C13.1306 96.904 13.2129 96.968 13.3106 97.0313C13.5911 97.1536 13.788 97.1677 13.9251 97.1185C14.0509 97.0749 14.1536 96.9603 14.2344 96.8309C14.3518 96.6411 14.47 96.2713 14.5754 95.9338C14.6239 95.7812 14.6696 95.635 14.7181 95.4986C15.1653 94.2303 15.3382 93.1419 15.3024 92.1844L15.3045 92.1865ZM12.8958 96.0737L12.8874 96.0822C12.8824 96.0871 12.8923 96.0773 12.8958 96.0737ZM5.28598 77.2746C5.71765 77.4258 6.16269 77.5819 6.58805 77.809C6.60843 77.2662 6.70545 76.7572 6.80107 76.2566C6.82427 76.1308 6.84818 76.0063 6.87981 75.8236C7.06964 74.7331 6.98879 73.4937 6.54024 72.4692C6.18589 71.6614 5.59604 70.9893 4.71793 70.6568C4.56185 70.5978 4.40717 70.5542 4.25461 70.5239C3.71186 70.4199 3.19933 70.5057 2.77821 70.744C2.35286 70.9859 2.01048 71.3873 1.8087 71.9167C1.74965 72.0693 1.70465 72.2345 1.6709 72.4102C1.48459 73.3811 1.72785 74.2817 2.21365 75.0389C2.80351 75.9592 3.7421 76.677 4.72494 77.07C4.90773 77.1438 5.09475 77.2093 5.28598 77.2746ZM18.0478 56.6163C18.1567 57.0599 18.2692 57.5169 18.3135 57.9971C18.7789 57.718 19.2591 57.5198 19.7316 57.3271C19.8237 57.2898 19.9144 57.2512 20.138 57.1556C21.1511 56.719 22.1451 55.9744 22.7583 55.0386C23.242 54.2997 23.4825 53.4378 23.2807 52.5174C23.2434 52.3494 23.197 52.1969 23.1415 52.0604C22.9312 51.55 22.5804 51.1683 22.1488 50.9447C21.7157 50.7211 21.1898 50.6543 20.6337 50.7767C20.4692 50.8139 20.3061 50.8624 20.1479 50.9278C19.2339 51.3025 18.6124 51.9979 18.2426 52.8212C17.794 53.8153 17.7104 54.9951 17.9185 56.0328C17.9621 56.2515 18.0078 56.4329 18.0528 56.6157L18.0478 56.6163Z" fill="white"/>
</svg>
