<svg width="222" height="105" viewBox="0 0 222 105" fill="none" xmlns="http://www.w3.org/2000/svg">
<rect x="0.5" y="0.5" width="221" height="104" rx="4.5" stroke="#9747FF" stroke-dasharray="10 5"/>
<path d="M77.8772 26.4641C79.0837 38.0543 71.9497 45.1828 71.8612 45.2684C67.6592 49.4689 60.5985 50.3308 56.3458 50.4406C59.6069 47.0431 64.5866 40.6968 64.5866 33.6288C64.5894 33.4305 64.5894 31.4308 63.9017 28.5874C67.5734 26.7859 73.6795 25.6104 77.8772 26.4641ZM61.5618 33.6051C61.5618 39.5465 57.1756 45.1489 54.2451 48.2345C54.1481 43.5249 53.1834 35.5178 48.1856 30.5198C48.0463 30.3778 46.6316 28.9659 44.1355 27.4415C45.456 23.5701 48.9423 18.4231 52.5182 16.0521C61.569 23.3955 61.5647 33.4812 61.5618 33.6051ZM27.2251 26.6245C38.8057 25.4208 45.9424 32.552 46.031 32.6405C50.2315 36.8425 51.0922 43.9047 51.2031 48.1585C47.8056 44.8973 41.4593 39.9176 34.3942 39.9176C34.1875 39.9219 32.1906 39.9233 29.3527 40.6067C27.5485 36.9336 26.3716 30.8279 27.2251 26.6245ZM16.8146 51.9835C24.1835 42.9031 34.2776 42.9539 34.3676 42.9413C40.3091 42.9413 45.9114 47.3276 48.997 50.2566C44.2875 50.3536 36.2803 51.3183 31.2824 56.3161C31.1403 56.4539 29.7256 57.8686 28.2012 60.3647C24.3283 59.0442 19.1827 55.558 16.8146 51.9835ZM27.3868 77.2766C26.1802 65.6863 33.3142 58.5579 33.4028 58.4722C37.6047 54.2702 44.6655 53.4084 48.9196 53.2986C45.6585 56.6961 40.6773 63.0424 40.6773 70.1103C40.6745 70.3086 40.6745 72.3083 41.3622 75.1518C37.6919 76.9561 31.5844 78.1316 27.3868 77.2766ZM52.7446 87.6871C43.6967 80.3449 43.6996 70.2594 43.7024 70.1356C43.7024 64.1941 48.0887 58.5917 51.0192 55.5061C51.1162 60.2157 52.0809 68.2229 57.0787 73.2193C57.2165 73.3614 58.6214 74.7789 61.1259 76.3061C59.8012 80.1775 56.318 85.319 52.7446 87.6871ZM78.0391 77.1164C66.4543 78.3215 59.3205 71.1875 59.2333 71.0989C55.0328 66.8984 54.1721 59.8362 54.0612 55.5821C57.4587 58.8432 63.805 63.8229 70.8701 63.8229H70.9544C71.3974 63.8229 73.2959 63.7793 75.9156 63.1437C77.7185 66.8182 78.8913 72.9173 78.0391 77.1164ZM88.4497 51.7574C81.0808 60.8377 70.991 60.8151 70.8967 60.7996C64.9495 60.7996 59.3399 56.405 56.2575 53.4743C60.9588 53.3829 68.966 52.4407 73.9819 47.4244C74.124 47.2866 75.5386 45.8719 77.063 43.3758C80.936 44.6963 86.0815 48.1826 88.4496 51.7571L88.4497 51.7574Z" fill="white"/>
<path d="M105.622 28.0125C106.586 28.0125 107.319 28.1281 107.82 28.3595C108.321 28.5715 108.765 28.8125 109.15 29.0823C109.381 29.2173 109.565 29.3233 109.699 29.4004C109.854 29.4582 109.998 29.4872 110.133 29.4872C110.326 29.4872 110.461 29.3811 110.538 29.1691C110.634 28.957 110.711 28.639 110.769 28.2149H111.434C111.415 28.5426 111.386 28.9378 111.348 29.4004C111.328 29.8438 111.309 30.4413 111.29 31.1931C111.29 31.9256 111.29 32.8991 111.29 34.1136H110.625C110.567 33.1883 110.364 32.3015 110.018 31.4534C109.671 30.6052 109.16 29.9112 108.485 29.3715C107.83 28.8317 106.962 28.5619 105.883 28.5619C104.861 28.5619 104.013 28.8703 103.338 29.4872C102.683 30.104 102.355 30.9136 102.355 31.916C102.355 32.7835 102.577 33.516 103.02 34.1136C103.463 34.6919 104.051 35.222 104.784 35.7039C105.536 36.1665 106.345 36.6677 107.213 37.2075C108.215 37.8243 109.102 38.4412 109.873 39.058C110.663 39.6556 111.28 40.3206 111.723 41.0531C112.186 41.7857 112.417 42.6724 112.417 43.7133C112.417 44.947 112.138 45.9687 111.579 46.7783C111.02 47.5879 110.278 48.1952 109.352 48.6C108.427 49.0048 107.406 49.2072 106.287 49.2072C105.266 49.2072 104.456 49.0915 103.859 48.8602C103.261 48.6289 102.75 48.3879 102.326 48.1373C101.902 47.8675 101.574 47.7325 101.343 47.7325C101.15 47.7325 101.006 47.8385 100.909 48.0506C100.832 48.2626 100.765 48.5807 100.707 49.0048H100.042C100.08 48.6 100.1 48.1277 100.1 47.5879C100.119 47.0289 100.129 46.306 100.129 45.4193C100.148 44.5326 100.157 43.4145 100.157 42.0652H100.823C100.9 43.2218 101.112 44.3013 101.459 45.3037C101.825 46.306 102.374 47.1157 103.107 47.7325C103.859 48.3301 104.851 48.6289 106.085 48.6289C106.721 48.6289 107.319 48.5036 107.878 48.253C108.456 47.9831 108.928 47.5687 109.295 47.0096C109.661 46.4313 109.844 45.6892 109.844 44.7832C109.844 43.9928 109.651 43.3085 109.266 42.7302C108.899 42.1326 108.379 41.5833 107.704 41.0821C107.03 40.5616 106.239 40.0315 105.333 39.4917C104.427 38.9327 103.579 38.3641 102.789 37.7858C101.998 37.2075 101.362 36.5424 100.88 35.7906C100.418 35.0196 100.186 34.0943 100.186 33.0148C100.186 31.8775 100.437 30.9425 100.938 30.21C101.459 29.4582 102.133 28.9089 102.962 28.5619C103.791 28.1956 104.678 28.0125 105.622 28.0125ZM121.7 33.5063C123.397 33.5063 124.717 34.0268 125.662 35.0677C126.625 36.0894 127.107 37.6894 127.107 39.8676H116.9L116.871 39.3183H124.332C124.37 38.3737 124.293 37.5062 124.1 36.7159C123.907 35.9063 123.599 35.2605 123.175 34.7786C122.77 34.2967 122.24 34.0557 121.585 34.0557C120.698 34.0557 119.908 34.4991 119.214 35.3858C118.539 36.2725 118.134 37.6797 117.999 39.6074L118.086 39.7231C118.047 40.0122 118.018 40.3303 117.999 40.6773C117.98 41.0242 117.97 41.3712 117.97 41.7182C117.97 43.029 118.182 44.1567 118.606 45.1012C119.03 46.0458 119.58 46.7687 120.255 47.2699C120.948 47.7518 121.662 47.9927 122.394 47.9927C122.973 47.9927 123.522 47.906 124.042 47.7325C124.563 47.5397 125.045 47.2313 125.488 46.8072C125.932 46.3831 126.317 45.8145 126.645 45.1012L127.223 45.3326C127.011 45.9687 126.664 46.5856 126.182 47.1831C125.7 47.7807 125.093 48.2723 124.36 48.6578C123.628 49.024 122.78 49.2072 121.816 49.2072C120.428 49.2072 119.233 48.8891 118.23 48.253C117.247 47.6169 116.486 46.7398 115.946 45.6217C115.426 44.4844 115.165 43.1832 115.165 41.7182C115.165 40.0218 115.435 38.5665 115.975 37.352C116.515 36.1183 117.276 35.1738 118.259 34.5184C119.243 33.8437 120.389 33.5063 121.7 33.5063ZM138.293 33.5063C138.814 33.5063 139.267 33.6124 139.652 33.8244C140.057 34.0364 140.366 34.316 140.578 34.6629C140.809 34.9906 140.925 35.3665 140.925 35.7906C140.925 36.2725 140.77 36.6966 140.462 37.0629C140.173 37.4291 139.778 37.6123 139.277 37.6123C138.872 37.6123 138.515 37.487 138.207 37.2364C137.898 36.9665 137.744 36.5906 137.744 36.1087C137.744 35.7424 137.84 35.434 138.033 35.1834C138.245 34.9135 138.477 34.7015 138.727 34.5473C138.592 34.3545 138.39 34.2581 138.12 34.2581C137.522 34.2581 136.973 34.4413 136.472 34.8075C135.971 35.1545 135.547 35.6075 135.2 36.1665C134.853 36.7255 134.583 37.3231 134.39 37.9592C134.197 38.5761 134.101 39.1544 134.101 39.6941V45.8241C134.101 46.7687 134.371 47.4048 134.91 47.7325C135.469 48.0409 136.221 48.1952 137.166 48.1952V48.8024C136.722 48.7831 136.096 48.7638 135.286 48.7445C134.477 48.706 133.619 48.6867 132.713 48.6867C132.057 48.6867 131.402 48.706 130.747 48.7445C130.11 48.7638 129.629 48.7831 129.301 48.8024V48.1952C130.091 48.1952 130.65 48.0506 130.978 47.7614C131.325 47.4723 131.498 46.9229 131.498 46.1133V37.0629C131.498 36.1954 131.344 35.5593 131.036 35.1545C130.727 34.7304 130.149 34.5184 129.301 34.5184V33.9111C129.918 33.969 130.515 33.9979 131.094 33.9979C131.653 33.9979 132.183 33.969 132.684 33.9111C133.204 33.834 133.677 33.728 134.101 33.5931V37.2075C134.313 36.6484 134.612 36.0894 134.997 35.5304C135.402 34.9521 135.884 34.4702 136.443 34.0846C137.002 33.6991 137.619 33.5063 138.293 33.5063ZM148.639 33.5063C150.335 33.5063 151.655 34.0268 152.6 35.0677C153.564 36.0894 154.046 37.6894 154.046 39.8676H143.839L143.81 39.3183H151.27C151.308 38.3737 151.231 37.5062 151.039 36.7159C150.846 35.9063 150.537 35.2605 150.113 34.7786C149.709 34.2967 149.178 34.0557 148.523 34.0557C147.636 34.0557 146.846 34.4991 146.152 35.3858C145.477 36.2725 145.072 37.6797 144.938 39.6074L145.024 39.7231C144.986 40.0122 144.957 40.3303 144.938 40.6773C144.918 41.0242 144.909 41.3712 144.909 41.7182C144.909 43.029 145.121 44.1567 145.545 45.1012C145.969 46.0458 146.518 46.7687 147.193 47.2699C147.887 47.7518 148.6 47.9927 149.333 47.9927C149.911 47.9927 150.46 47.906 150.981 47.7325C151.501 47.5397 151.983 47.2313 152.427 46.8072C152.87 46.3831 153.255 45.8145 153.583 45.1012L154.161 45.3326C153.949 45.9687 153.602 46.5856 153.12 47.1831C152.639 47.7807 152.031 48.2723 151.299 48.6578C150.566 49.024 149.718 49.2072 148.754 49.2072C147.366 49.2072 146.171 48.8891 145.169 48.253C144.186 47.6169 143.424 46.7398 142.885 45.6217C142.364 44.4844 142.104 43.1832 142.104 41.7182C142.104 40.0218 142.374 38.5665 142.914 37.352C143.453 36.1183 144.215 35.1738 145.198 34.5184C146.181 33.8437 147.328 33.5063 148.639 33.5063ZM165.955 33.5063C166.687 33.5063 167.294 33.6027 167.776 33.7955C168.278 33.9883 168.692 34.2581 169.02 34.6051C169.386 34.9906 169.646 35.4726 169.8 36.0509C169.955 36.6292 170.032 37.4099 170.032 38.393V46.1133C170.032 46.9229 170.196 47.4723 170.523 47.7614C170.87 48.0506 171.439 48.1952 172.229 48.1952V48.8024C171.902 48.7831 171.4 48.7638 170.726 48.7445C170.051 48.706 169.396 48.6867 168.759 48.6867C168.123 48.6867 167.497 48.706 166.88 48.7445C166.282 48.7638 165.829 48.7831 165.521 48.8024V48.1952C166.215 48.1952 166.706 48.0506 166.996 47.7614C167.285 47.4723 167.429 46.9229 167.429 46.1133V37.7568C167.429 37.1593 167.381 36.6099 167.285 36.1087C167.188 35.6075 166.967 35.2027 166.62 34.8943C166.292 34.5858 165.781 34.4316 165.087 34.4316C164.278 34.4316 163.564 34.6629 162.948 35.1256C162.35 35.5882 161.878 36.2243 161.531 37.034C161.203 37.8243 161.039 38.711 161.039 39.6941V46.1133C161.039 46.9229 161.184 47.4723 161.473 47.7614C161.762 48.0506 162.254 48.1952 162.948 48.1952V48.8024C162.639 48.7831 162.176 48.7638 161.56 48.7445C160.962 48.706 160.345 48.6867 159.709 48.6867C159.073 48.6867 158.418 48.706 157.743 48.7445C157.068 48.7638 156.567 48.7831 156.239 48.8024V48.1952C157.03 48.1952 157.589 48.0506 157.916 47.7614C158.263 47.4723 158.437 46.9229 158.437 46.1133V37.0629C158.437 36.1954 158.283 35.5593 157.974 35.1545C157.666 34.7304 157.087 34.5184 156.239 34.5184V33.9111C156.856 33.969 157.454 33.9979 158.032 33.9979C158.591 33.9979 159.121 33.969 159.622 33.9111C160.143 33.834 160.615 33.728 161.039 33.5931V37.0051C161.54 35.6942 162.234 34.7882 163.121 34.287C164.027 33.7666 164.972 33.5063 165.955 33.5063ZM176.789 26.6824C177.29 26.6824 177.723 26.8655 178.09 27.2318C178.456 27.598 178.639 28.0318 178.639 28.533C178.639 29.0342 178.456 29.4679 178.09 29.8341C177.723 30.2004 177.29 30.3835 176.789 30.3835C176.287 30.3835 175.854 30.2004 175.487 29.8341C175.121 29.4679 174.938 29.0342 174.938 28.533C174.938 28.0318 175.121 27.598 175.487 27.2318C175.854 26.8655 176.287 26.6824 176.789 26.6824ZM178.292 33.5931V46.1133C178.292 46.9229 178.456 47.4723 178.784 47.7614C179.131 48.0506 179.699 48.1952 180.49 48.1952V48.8024C180.162 48.7831 179.661 48.7638 178.986 48.7445C178.331 48.706 177.666 48.6867 176.991 48.6867C176.336 48.6867 175.67 48.706 174.996 48.7445C174.321 48.7638 173.82 48.7831 173.492 48.8024V48.1952C174.283 48.1952 174.842 48.0506 175.169 47.7614C175.516 47.4723 175.69 46.9229 175.69 46.1133V37.0629C175.69 36.1954 175.536 35.5593 175.227 35.1545C174.919 34.7304 174.34 34.5184 173.492 34.5184V33.9111C174.109 33.969 174.707 33.9979 175.285 33.9979C175.844 33.9979 176.374 33.969 176.875 33.9111C177.396 33.834 177.868 33.728 178.292 33.5931ZM186.619 29.1113V33.9401H190.898V34.5184H186.619V45.7085C186.619 46.6145 186.783 47.2506 187.11 47.6169C187.438 47.9831 187.891 48.1662 188.469 48.1662C189.048 48.1662 189.549 47.9349 189.973 47.4723C190.397 46.9904 190.763 46.1904 191.072 45.0723L191.65 45.2169C191.457 46.335 191.072 47.2795 190.493 48.0506C189.934 48.8216 189.067 49.2072 187.891 49.2072C187.236 49.2072 186.696 49.1204 186.272 48.9469C185.848 48.7927 185.472 48.5614 185.144 48.253C184.72 47.8096 184.421 47.2795 184.248 46.6627C184.093 46.0458 184.016 45.2265 184.016 44.2049V34.5184H181.241V33.9401H184.016V29.5161C184.498 29.4968 184.961 29.4582 185.404 29.4004C185.848 29.3426 186.252 29.2462 186.619 29.1113ZM205.631 33.9111V34.4894C205.265 34.528 204.927 34.6919 204.619 34.981C204.31 35.2702 204.021 35.781 203.751 36.5135L199.009 48.9469H198.518L193.197 36.1376C192.831 35.3858 192.465 34.9328 192.099 34.7786C191.752 34.6051 191.462 34.5184 191.231 34.5184V33.9111C191.655 33.969 192.099 34.0172 192.561 34.0557C193.024 34.075 193.525 34.0846 194.065 34.0846C194.662 34.0846 195.289 34.0654 195.944 34.0268C196.619 33.9883 197.245 33.9497 197.824 33.9111V34.5184C197.342 34.5184 196.908 34.5569 196.523 34.634C196.156 34.6919 195.925 34.8943 195.829 35.2412C195.732 35.5689 195.848 36.1376 196.176 36.9472L199.732 45.7663L199.559 45.8241L202.855 37.2075C203.106 36.5713 203.202 36.0701 203.144 35.7039C203.106 35.3183 202.913 35.0292 202.566 34.8364C202.219 34.6437 201.698 34.528 201.004 34.4894V33.9111C201.351 33.9304 201.65 33.9497 201.901 33.969C202.151 33.969 202.392 33.9786 202.624 33.9979C202.874 33.9979 203.144 33.9979 203.433 33.9979C203.877 33.9979 204.272 33.9883 204.619 33.969C204.985 33.9497 205.322 33.9304 205.631 33.9111ZM199.009 48.9469L198.026 51.4625C197.833 51.9445 197.631 52.3493 197.419 52.677C197.226 53.0047 197.014 53.2746 196.783 53.4866C196.474 53.7757 196.108 53.9685 195.684 54.0649C195.26 54.1806 194.874 54.2384 194.527 54.2384C194.161 54.2384 193.824 54.1709 193.515 54.036C193.226 53.901 192.995 53.6986 192.821 53.4288C192.648 53.1782 192.561 52.8697 192.561 52.5035C192.561 52.0408 192.696 51.665 192.966 51.3758C193.236 51.1059 193.612 50.971 194.094 50.971C194.499 50.971 194.846 51.0867 195.135 51.318C195.424 51.5493 195.568 51.8866 195.568 52.33C195.568 52.6577 195.491 52.9276 195.337 53.1396C195.183 53.3517 195 53.5155 194.788 53.6312C194.826 53.6504 194.855 53.6601 194.874 53.6601C194.913 53.6601 194.942 53.6601 194.961 53.6601C195.482 53.6601 195.944 53.477 196.349 53.1107C196.754 52.7637 197.111 52.1951 197.419 51.4047L198.46 48.7156L199.009 48.9469ZM105.622 55.0125C106.586 55.0125 107.319 55.1281 107.82 55.3595C108.321 55.5715 108.765 55.8125 109.15 56.0823C109.381 56.2173 109.565 56.3233 109.699 56.4004C109.854 56.4582 109.998 56.4872 110.133 56.4872C110.326 56.4872 110.461 56.3811 110.538 56.1691C110.634 55.957 110.711 55.639 110.769 55.2149H111.434C111.415 55.5426 111.386 55.9378 111.348 56.4004C111.328 56.8438 111.309 57.4413 111.29 58.1931C111.29 58.9256 111.29 59.8991 111.29 61.1136H110.625C110.567 60.1883 110.364 59.3015 110.018 58.4534C109.671 57.6052 109.16 56.9112 108.485 56.3715C107.83 55.8317 106.962 55.5619 105.883 55.5619C104.861 55.5619 104.013 55.8703 103.338 56.4872C102.683 57.104 102.355 57.9136 102.355 58.916C102.355 59.7835 102.577 60.516 103.02 61.1136C103.463 61.6919 104.051 62.222 104.784 62.7039C105.536 63.1665 106.345 63.6677 107.213 64.2075C108.215 64.8243 109.102 65.4412 109.873 66.058C110.663 66.6556 111.28 67.3206 111.723 68.0531C112.186 68.7857 112.417 69.6724 112.417 70.7133C112.417 71.947 112.138 72.9687 111.579 73.7783C111.02 74.5879 110.278 75.1952 109.352 75.6C108.427 76.0048 107.406 76.2072 106.287 76.2072C105.266 76.2072 104.456 76.0915 103.859 75.8602C103.261 75.6289 102.75 75.3879 102.326 75.1373C101.902 74.8675 101.574 74.7325 101.343 74.7325C101.15 74.7325 101.006 74.8385 100.909 75.0506C100.832 75.2626 100.765 75.5807 100.707 76.0048H100.042C100.08 75.6 100.1 75.1277 100.1 74.5879C100.119 74.0289 100.129 73.306 100.129 72.4193C100.148 71.5326 100.157 70.4145 100.157 69.0652H100.823C100.9 70.2218 101.112 71.3013 101.459 72.3037C101.825 73.306 102.374 74.1157 103.107 74.7325C103.859 75.3301 104.851 75.6289 106.085 75.6289C106.721 75.6289 107.319 75.5036 107.878 75.253C108.456 74.9831 108.928 74.5687 109.295 74.0096C109.661 73.4313 109.844 72.6892 109.844 71.7832C109.844 70.9928 109.651 70.3085 109.266 69.7302C108.899 69.1326 108.379 68.5833 107.704 68.0821C107.03 67.5616 106.239 67.0315 105.333 66.4917C104.427 65.9327 103.579 65.3641 102.789 64.7858C101.998 64.2075 101.362 63.5424 100.88 62.7906C100.418 62.0196 100.186 61.0943 100.186 60.0148C100.186 58.8775 100.437 57.9425 100.938 57.21C101.459 56.4582 102.133 55.9089 102.962 55.5619C103.791 55.1956 104.678 55.0125 105.622 55.0125ZM119.271 60.5931V78.3469C119.271 79.1758 119.512 79.7252 119.994 79.995C120.495 80.2842 121.18 80.4288 122.047 80.4288V81.036C121.623 81.0167 121.035 80.9878 120.283 80.9492C119.532 80.93 118.732 80.9203 117.884 80.9203C117.286 80.9203 116.688 80.93 116.091 80.9492C115.512 80.9878 115.069 81.0167 114.761 81.036V80.4288C115.455 80.4288 115.946 80.3035 116.235 80.0529C116.525 79.8023 116.669 79.33 116.669 78.636V64.0629C116.669 63.1954 116.515 62.5593 116.206 62.1545C115.898 61.7304 115.32 61.5184 114.472 61.5184V60.9111C115.088 60.969 115.686 60.9979 116.264 60.9979C116.823 60.9979 117.353 60.969 117.855 60.9111C118.375 60.834 118.847 60.728 119.271 60.5931ZM123.898 60.5063C124.919 60.5063 125.835 60.7858 126.645 61.3449C127.454 61.8846 128.091 62.6846 128.553 63.7448C129.035 64.805 129.276 66.1158 129.276 67.6773C129.276 68.7182 129.151 69.7495 128.9 70.7712C128.65 71.7735 128.254 72.6892 127.715 73.5181C127.194 74.3277 126.51 74.9831 125.662 75.4843C124.833 75.9662 123.83 76.2072 122.654 76.2072C121.748 76.2072 120.958 75.9951 120.283 75.571C119.628 75.147 119.185 74.6361 118.953 74.0386L119.243 73.6337C119.512 74.1735 119.898 74.6265 120.399 74.9927C120.92 75.359 121.565 75.5421 122.336 75.5421C123.416 75.5421 124.254 75.2048 124.852 74.5301C125.45 73.8554 125.864 72.9591 126.095 71.841C126.346 70.7037 126.471 69.4507 126.471 68.0821C126.471 66.5399 126.346 65.2773 126.095 64.2942C125.845 63.3111 125.469 62.5786 124.968 62.0967C124.466 61.6147 123.85 61.3738 123.117 61.3738C122.173 61.3738 121.315 61.769 120.544 62.5593C119.773 63.3304 119.281 64.5062 119.069 66.0869L118.722 65.6821C118.934 64.0436 119.512 62.7713 120.457 61.8653C121.421 60.9593 122.568 60.5063 123.898 60.5063ZM140.468 60.5063C140.988 60.5063 141.441 60.6124 141.827 60.8244C142.232 61.0364 142.54 61.316 142.752 61.6629C142.983 61.9906 143.099 62.3665 143.099 62.7906C143.099 63.2725 142.945 63.6966 142.636 64.0629C142.347 64.4291 141.952 64.6123 141.451 64.6123C141.046 64.6123 140.689 64.487 140.381 64.2364C140.073 63.9665 139.918 63.5906 139.918 63.1087C139.918 62.7424 140.015 62.434 140.207 62.1834C140.42 61.9135 140.651 61.7015 140.901 61.5473C140.766 61.3545 140.564 61.2581 140.294 61.2581C139.697 61.2581 139.147 61.4413 138.646 61.8075C138.145 62.1545 137.721 62.6075 137.374 63.1665C137.027 63.7255 136.757 64.3231 136.564 64.9592C136.371 65.5761 136.275 66.1544 136.275 66.6941V72.8241C136.275 73.7687 136.545 74.4048 137.085 74.7325C137.644 75.0409 138.395 75.1952 139.34 75.1952V75.8024C138.897 75.7831 138.27 75.7638 137.461 75.7445C136.651 75.706 135.793 75.6867 134.887 75.6867C134.232 75.6867 133.576 75.706 132.921 75.7445C132.285 75.7638 131.803 75.7831 131.475 75.8024V75.1952C132.265 75.1952 132.825 75.0506 133.152 74.7614C133.499 74.4723 133.673 73.9229 133.673 73.1133V64.0629C133.673 63.1954 133.518 62.5593 133.21 62.1545C132.902 61.7304 132.323 61.5184 131.475 61.5184V60.9111C132.092 60.969 132.69 60.9979 133.268 60.9979C133.827 60.9979 134.357 60.969 134.858 60.9111C135.379 60.834 135.851 60.728 136.275 60.5931V64.2075C136.487 63.6484 136.786 63.0894 137.171 62.5304C137.576 61.9521 138.058 61.4702 138.617 61.0846C139.176 60.6991 139.793 60.5063 140.468 60.5063ZM147.648 53.6824C148.149 53.6824 148.583 53.8655 148.949 54.2318C149.315 54.598 149.498 55.0318 149.498 55.533C149.498 56.0342 149.315 56.4679 148.949 56.8341C148.583 57.2004 148.149 57.3835 147.648 57.3835C147.146 57.3835 146.713 57.2004 146.346 56.8341C145.98 56.4679 145.797 56.0342 145.797 55.533C145.797 55.0318 145.98 54.598 146.346 54.2318C146.713 53.8655 147.146 53.6824 147.648 53.6824ZM149.151 60.5931V73.1133C149.151 73.9229 149.315 74.4723 149.643 74.7614C149.99 75.0506 150.558 75.1952 151.349 75.1952V75.8024C151.021 75.7831 150.52 75.7638 149.845 75.7445C149.19 75.706 148.525 75.6867 147.85 75.6867C147.195 75.6867 146.53 75.706 145.855 75.7445C145.18 75.7638 144.679 75.7831 144.351 75.8024V75.1952C145.142 75.1952 145.701 75.0506 146.028 74.7614C146.375 74.4723 146.549 73.9229 146.549 73.1133V64.0629C146.549 63.1954 146.395 62.5593 146.086 62.1545C145.778 61.7304 145.2 61.5184 144.351 61.5184V60.9111C144.968 60.969 145.566 60.9979 146.144 60.9979C146.703 60.9979 147.233 60.969 147.734 60.9111C148.255 60.834 148.727 60.728 149.151 60.5931ZM162.538 60.5063C163.27 60.5063 163.878 60.6027 164.36 60.7955C164.861 60.9883 165.275 61.2581 165.603 61.6051C165.969 61.9906 166.229 62.4726 166.384 63.0509C166.538 63.6292 166.615 64.4099 166.615 65.393V73.1133C166.615 73.9229 166.779 74.4723 167.107 74.7614C167.454 75.0506 168.022 75.1952 168.813 75.1952V75.8024C168.485 75.7831 167.984 75.7638 167.309 75.7445C166.634 75.706 165.979 75.6867 165.343 75.6867C164.707 75.6867 164.08 75.706 163.463 75.7445C162.866 75.7638 162.413 75.7831 162.104 75.8024V75.1952C162.798 75.1952 163.29 75.0506 163.579 74.7614C163.868 74.4723 164.013 73.9229 164.013 73.1133V64.7568C164.013 64.1593 163.964 63.6099 163.868 63.1087C163.772 62.6075 163.55 62.2027 163.203 61.8943C162.875 61.5858 162.364 61.4316 161.671 61.4316C160.861 61.4316 160.148 61.6629 159.531 62.1256C158.933 62.5882 158.461 63.2243 158.114 64.034C157.786 64.8243 157.622 65.711 157.622 66.6941V73.1133C157.622 73.9229 157.767 74.4723 158.056 74.7614C158.345 75.0506 158.837 75.1952 159.531 75.1952V75.8024C159.222 75.7831 158.76 75.7638 158.143 75.7445C157.545 75.706 156.928 75.6867 156.292 75.6867C155.656 75.6867 155.001 75.706 154.326 75.7445C153.651 75.7638 153.15 75.7831 152.823 75.8024V75.1952C153.613 75.1952 154.172 75.0506 154.5 74.7614C154.847 74.4723 155.02 73.9229 155.02 73.1133V64.0629C155.02 63.1954 154.866 62.5593 154.557 62.1545C154.249 61.7304 153.671 61.5184 152.823 61.5184V60.9111C153.439 60.969 154.037 60.9979 154.615 60.9979C155.174 60.9979 155.704 60.969 156.206 60.9111C156.726 60.834 157.198 60.728 157.622 60.5931V64.0051C158.124 62.6942 158.818 61.7882 159.704 61.287C160.61 60.7666 161.555 60.5063 162.538 60.5063ZM175.114 81.2384C174.092 81.2384 173.128 81.1324 172.222 80.9203C171.316 80.7083 170.583 80.3709 170.024 79.9083C169.485 79.4649 169.215 78.8963 169.215 78.2023C169.215 77.5276 169.485 76.9493 170.024 76.4674C170.564 75.9855 171.297 75.6192 172.222 75.3686L172.396 75.8313C171.971 75.9662 171.634 76.2361 171.383 76.6409C171.133 77.0457 171.008 77.4987 171.008 77.9999C171.008 78.8866 171.412 79.5613 172.222 80.024C173.051 80.5059 174.121 80.7468 175.432 80.7468C176.299 80.7468 177.147 80.6312 177.976 80.3999C178.805 80.1878 179.489 79.8216 180.029 79.3011C180.569 78.7806 180.839 78.0963 180.839 77.2481C180.839 76.612 180.607 76.0915 180.145 75.6867C179.701 75.2626 178.815 75.0506 177.485 75.0506H175.345C174.728 75.0506 174.13 75.0024 173.552 74.906C172.974 74.8096 172.502 74.6072 172.135 74.2988C171.769 73.9904 171.586 73.5181 171.586 72.882C171.586 72.2265 171.856 71.6001 172.396 71.0025C172.935 70.3856 173.928 69.7591 175.374 69.123L175.721 69.3832C175.065 69.7302 174.497 70.0868 174.015 70.4531C173.533 70.8001 173.292 71.2145 173.292 71.6964C173.292 72.3133 173.755 72.6217 174.68 72.6217H178.294C179.104 72.6217 179.846 72.7374 180.521 72.9687C181.215 73.2 181.774 73.5663 182.198 74.0675C182.622 74.5687 182.834 75.2241 182.834 76.0337C182.834 76.9397 182.545 77.7879 181.966 78.5782C181.388 79.3686 180.521 80.0047 179.364 80.4866C178.227 80.9878 176.81 81.2384 175.114 81.2384ZM175.258 69.6435C174.314 69.6435 173.456 69.4893 172.685 69.1808C171.914 68.8531 171.306 68.3519 170.863 67.6773C170.42 67.0026 170.198 66.1351 170.198 65.0749C170.198 64.0147 170.42 63.1472 170.863 62.4726C171.306 61.7979 171.914 61.3063 172.685 60.9979C173.456 60.6702 174.314 60.5063 175.258 60.5063C176.222 60.5063 177.08 60.6702 177.832 60.9979C178.603 61.3063 179.21 61.7979 179.653 62.4726C180.097 63.1472 180.318 64.0147 180.318 65.0749C180.318 66.1351 180.097 67.0026 179.653 67.6773C179.21 68.3519 178.603 68.8531 177.832 69.1808C177.08 69.4893 176.222 69.6435 175.258 69.6435ZM175.258 69.123C175.991 69.123 176.559 68.8339 176.964 68.2556C177.388 67.6773 177.6 66.617 177.6 65.0749C177.6 63.5328 177.388 62.4726 176.964 61.8943C176.559 61.316 175.991 61.0268 175.258 61.0268C174.545 61.0268 173.976 61.316 173.552 61.8943C173.128 62.4726 172.916 63.5328 172.916 65.0749C172.916 66.617 173.128 67.6773 173.552 68.2556C173.976 68.8339 174.545 69.123 175.258 69.123ZM179.422 62.9063L178.901 62.7039C179.171 62.0485 179.634 61.4702 180.289 60.969C180.945 60.4678 181.629 60.2172 182.342 60.2172C182.843 60.2172 183.248 60.3618 183.557 60.6509C183.865 60.9208 184.019 61.3352 184.019 61.8943C184.019 62.4918 183.855 62.9159 183.528 63.1665C183.219 63.3978 182.901 63.5135 182.574 63.5135C182.284 63.5135 182.015 63.4171 181.764 63.2243C181.513 63.0123 181.369 62.6846 181.33 62.2412C181.292 61.7979 181.427 61.2292 181.735 60.5353L182.111 60.622C181.301 60.9304 180.723 61.2581 180.376 61.6051C180.029 61.9328 179.711 62.3665 179.422 62.9063ZM190.104 60.5063C190.875 60.5063 191.531 60.6316 192.07 60.8822C192.61 61.1328 193.005 61.3641 193.256 61.5762C193.892 62.0967 194.278 61.7497 194.412 60.5353H195.078C195.039 61.075 195.01 61.7208 194.991 62.4726C194.971 63.2051 194.962 64.1978 194.962 65.4508H194.297C194.181 64.7376 193.979 64.0436 193.69 63.3689C193.42 62.6942 193.015 62.1449 192.475 61.7208C191.935 61.2774 191.232 61.0557 190.364 61.0557C189.69 61.0557 189.121 61.2485 188.658 61.634C188.215 62.0003 187.993 62.5497 187.993 63.2822C187.993 63.8605 188.167 64.3617 188.514 64.7858C188.861 65.1906 189.314 65.5761 189.873 65.9424C190.432 66.2893 191.039 66.6749 191.694 67.099C192.427 67.5616 193.092 68.0339 193.69 68.5158C194.287 68.9977 194.759 69.5278 195.106 70.1061C195.473 70.6844 195.656 71.3687 195.656 72.1591C195.656 73.0458 195.424 73.788 194.962 74.3855C194.499 74.9831 193.892 75.4361 193.14 75.7445C192.408 76.053 191.598 76.2072 190.711 76.2072C190.287 76.2072 189.882 76.1686 189.497 76.0915C189.131 76.0337 188.774 75.9373 188.427 75.8024C188.234 75.706 188.032 75.5903 187.82 75.4554C187.627 75.3205 187.434 75.1759 187.242 75.0217C187.049 74.8675 186.875 74.8771 186.721 75.0506C186.567 75.2048 186.451 75.5229 186.374 76.0048H185.709C185.748 75.3879 185.777 74.6361 185.796 73.7494C185.815 72.8627 185.825 71.6868 185.825 70.2218H186.49C186.625 71.3013 186.817 72.2458 187.068 73.0554C187.319 73.8651 187.714 74.5012 188.254 74.9638C188.793 75.4072 189.545 75.6289 190.509 75.6289C190.894 75.6289 191.28 75.5421 191.666 75.3686C192.07 75.1952 192.408 74.906 192.678 74.5012C192.947 74.0964 193.082 73.5566 193.082 72.882C193.082 72.0338 192.774 71.3398 192.157 70.8001C191.54 70.2603 190.76 69.6917 189.815 69.0941C189.121 68.6507 188.466 68.2074 187.849 67.764C187.251 67.3206 186.76 66.8194 186.374 66.2604C186.008 65.7014 185.825 65.0267 185.825 64.2364C185.825 63.3689 186.017 62.6653 186.403 62.1256C186.808 61.5666 187.338 61.1617 187.993 60.9111C188.649 60.6413 189.352 60.5063 190.104 60.5063Z" fill="white"/>
</svg>
